<svg xmlns="http://www.w3.org/2000/svg" viewBox="0 0 100 100">
    <style>
        path, circle {
            stroke: #4B5563;
            stroke-width: 2;
            stroke-linecap: round;
            stroke-linejoin: round;
            fill: none;
        }
        @media (prefers-color-scheme: dark) {
            path, circle { stroke: #E5E7EB; }
        }
    </style>
    <path d="M10 80h80v10H10z"/>
    <path d="M30 50c0-11 20-30 20-30s20 19 20 30v30H30V50z"/>
    <path d="M15 60c0-6 10-15 10-15s10 9 10 15v20H15V60z"/>
    <path d="M65 60c0-6 10-15 10-15s10 9 10 15v20H65V60z"/>
    <path d="M45 15c3.5-3.5 9.5-3.5 13 0"/>
    <path d="M38 65c0 0 3-2 7-2s7 2 7 2"/>
    <circle cx="41" cy="60" r="1"/>
    <circle cx="49" cy="60" r="1"/>
</svg>
